<?xml version="1.0" encoding="utf-8"?>
<!-- Generator: Adobe Illustrator 25.4.1, SVG Export Plug-In . SVG Version: 6.00 Build 0)  -->
<svg version="1.1" id="Layer_1" xmlns="http://www.w3.org/2000/svg" xmlns:xlink="http://www.w3.org/1999/xlink" x="0px" y="0px"
	 viewBox="0 0 1200 1200" style="enable-background:new 0 0 1200 1200;" xml:space="preserve">
<style type="text/css">
	.st0{fill:#FBB03B;}
	.st1{fill:#F27029;}
	.st2{fill:#00B5D2;}
	.st3{fill:#02A9B4;}
	.st4{fill:#028DA3;}
	.st5{fill:#F69220;}
	.st6{fill:#F48220;}
	.st7{fill:#FFC114;}
	.st8{fill:#00A7CA;}
	.st9{fill:#F37526;}
	.st10{fill:#F79920;}
	.st11{fill:#F9A11D;}
	.st12{fill:none;}
	.st13{fill:#5AC8E8;}
	.st14{fill:#078BA9;}
	.st15{fill:#D93627;}
	.st16{fill:#00A6AF;}
	.st17{fill:#EE4237;}
	.st18{fill:#F26F28;}
	.st19{fill:#FBB216;}
	.st20{fill:#317888;}
	.st21{fill:#F89E1B;}
	.st22{fill:#10ABB6;}
	.st23{fill:#ED2037;}
	.st24{fill:#EC5A2E;}
	.st25{fill:#009BB1;}
	.st26{fill:#ED1F44;}
	.st27{fill:#8E1832;}
	.st28{fill:#ED203A;}
	.st29{fill:#EE4456;}
	.st30{fill:#D51E43;}
	.st31{fill:#ED1E4A;}
	.st32{fill:#E81D3C;}
	.st33{fill:none;stroke:#D51E43;stroke-width:0;stroke-linecap:round;stroke-linejoin:round;}
	.st34{fill:none;stroke:#C42042;stroke-width:0;stroke-linecap:round;stroke-linejoin:round;}
	.st35{fill:#3AC4EB;}
	.st36{fill:#20334E;}
</style>
<polygon class="st0" points="1026.3,727.7 615.6,727.7 615.6,663.4 988.8,663.4 "/>
<g>
	<path class="st0" d="M165.2,570.4h-30.3c-0.2-2.5-0.8-4.8-1.7-6.8c-0.9-2-2.2-3.8-3.8-5.3s-3.5-2.6-5.8-3.4
		c-2.3-0.8-4.8-1.2-7.7-1.2c-5,0-9.3,1.2-12.7,3.7c-3.5,2.4-6.1,5.9-7.9,10.5c-1.8,4.6-2.7,10-2.7,16.4c0,6.7,0.9,12.4,2.7,16.9
		c1.8,4.5,4.4,7.9,7.9,10.2c3.4,2.3,7.6,3.4,12.4,3.4c2.8,0,5.2-0.3,7.4-1c2.2-0.7,4.1-1.7,5.7-3c1.6-1.3,2.9-2.9,4-4.8
		c1-1.9,1.7-4,2.1-6.4l30.3,0.2c-0.4,4.7-1.7,9.4-3.9,14.2c-2.3,4.8-5.5,9.3-9.6,13.3s-9.3,7.3-15.4,9.8c-6.1,2.5-13.2,3.7-21.3,3.7
		c-10.1,0-19.2-2.2-27.2-6.5c-8-4.3-14.3-10.7-19-19.2c-4.6-8.4-7-18.7-7-30.9c0-12.3,2.4-22.6,7.1-31c4.7-8.4,11.1-14.8,19.2-19.1
		c8-4.3,17-6.5,26.9-6.5c7,0,13.4,1,19.2,2.9c5.8,1.9,11,4.7,15.4,8.3c4.4,3.6,8,8.1,10.7,13.4C163,557.4,164.7,563.5,165.2,570.4z"
		/>
	<path class="st0" d="M178.8,529.1h29.9v57.7h0.9l39.2-57.7h25.4v110.2h-29.9v-57.9h-0.6l-39.8,57.9h-25V529.1z"/>
	<path class="st0" d="M365.8,529.1v24.1h-47.6v86.1h-29.9V529.1H365.8z"/>
	<path class="st0" d="M392.9,640.8v-23.2h5.4c3.2,0,5.7-0.3,7.5-0.8c1.8-0.5,3.3-1.5,4.3-2.8c1-1.3,1.9-3.2,2.6-5.7l1.1-3.2
		l-41.3-76h30.6l23,44.8l17.6-44.8h30.1L436,615.1c-2.1,4.5-4.6,8.7-7.4,12.6c-2.9,3.9-6.4,7-10.7,9.4c-4.3,2.4-9.6,3.6-15.9,3.6
		H392.9z"/>
	<path class="st0" d="M483.6,639.2V529.1h47.6c8.2,0,15.3,1.6,21.5,4.8c6.1,3.2,10.9,7.8,14.3,13.6c3.4,5.8,5.1,12.7,5.1,20.5
		c0,7.9-1.7,14.7-5.2,20.5c-3.5,5.8-8.4,10.2-14.7,13.3c-6.3,3.1-13.6,4.7-22,4.7h-28.4v-23.2H524c3.5,0,6.5-0.6,9-1.9
		c2.5-1.2,4.4-3,5.8-5.3c1.3-2.3,2-5,2-8.1c0-3.2-0.7-5.9-2-8.1c-1.3-2.2-3.3-4-5.8-5.2c-2.5-1.2-5.5-1.8-9-1.8h-10.5v86.3H483.6z"
		/>
	<path class="st0" d="M583,639.2V529.1h29.9v43h39.6v-43h29.9v110.2h-29.9v-43h-39.6v43H583z"/>
	<path class="st0" d="M920,570.4h-30.3c-0.2-2.5-0.8-4.8-1.7-6.8c-0.9-2-2.2-3.8-3.8-5.3c-1.6-1.5-3.5-2.6-5.8-3.4
		c-2.3-0.8-4.8-1.2-7.7-1.2c-5,0-9.3,1.2-12.7,3.7c-3.5,2.4-6.1,5.9-7.9,10.5c-1.8,4.6-2.7,10-2.7,16.4c0,6.7,0.9,12.4,2.7,16.9
		c1.8,4.5,4.4,7.9,7.9,10.2c3.4,2.3,7.6,3.4,12.4,3.4c2.8,0,5.2-0.3,7.4-1c2.2-0.7,4.1-1.7,5.7-3c1.6-1.3,2.9-2.9,4-4.8
		c1-1.9,1.7-4,2.1-6.4l30.3,0.2c-0.4,4.7-1.7,9.4-3.9,14.2c-2.3,4.8-5.5,9.3-9.6,13.3s-9.3,7.3-15.4,9.8c-6.1,2.5-13.2,3.7-21.3,3.7
		c-10.1,0-19.2-2.2-27.2-6.5c-8-4.3-14.3-10.7-19-19.2c-4.6-8.4-7-18.7-7-30.9c0-12.3,2.4-22.6,7.1-31c4.7-8.4,11.1-14.8,19.2-19.1
		c8-4.3,17-6.5,26.9-6.5c7,0,13.4,1,19.2,2.9c5.8,1.9,11,4.7,15.4,8.3c4.4,3.6,8,8.1,10.7,13.4C917.8,557.4,919.4,563.5,920,570.4z"
		/>
	<path class="st0" d="M930.6,553.2v-24.1h95.8v24.1h-33.1v86.1h-29.5v-86.1H930.6z"/>
	<g>
		<g>
			<polygon id="XMLID_187_" class="st1" points="746.2,615.3 753.2,615.3 752.4,606.7 747,606.7 			"/>
			<polygon id="XMLID_147_" class="st2" points="750.5,575.1 750.2,571 750.1,571 749.7,571 749.2,571 748.9,575.1 			"/>
			<g>
				<polygon id="XMLID_98_" class="st3" points="752.4,600.9 751.6,593.9 748.4,593.9 747.8,594.3 747.4,597.7 751.8,600.9 				"/>
				<polygon id="XMLID_97_" class="st1" points="747.4,597.7 747,600.9 751.8,600.9 				"/>
				<polygon id="XMLID_96_" class="st4" points="747.9,593.9 747.8,594.3 748.4,593.9 				"/>
			</g>
			<polygon id="XMLID_126_" class="st4" points="751.6,588.5 750.7,581.5 748.7,581.5 747.9,588.5 			"/>
			<rect id="XMLID_93_" x="746.2" y="621.6" class="st5" width="7" height="10.3"/>
			<path id="XMLID_89_" class="st6" d="M753.2,638.7h-7v3.1c1.1,0.1,2.3,0.1,3.5,0.1v0c0.1,0,0.1,0,0.2,0c0.1,0,0.1,0,0.2,0v0
				c1.1,0,2.1,0,3.1-0.1V638.7z"/>
			<g>
				<polygon id="XMLID_95_" class="st3" points="755.1,589.3 754.5,589.7 757,604.6 758.4,605.6 				"/>
				<polygon id="XMLID_94_" class="st1" points="758.4,605.6 757,604.6 759.4,618.7 761,618.5 				"/>
				<polygon id="XMLID_92_" class="st5" points="761,618.5 759.4,618.7 760.8,626.9 762.4,625.6 				"/>
				<polygon id="XMLID_91_" class="st7" points="760.8,626.9 762.8,639 765.3,639.6 762.4,625.6 				"/>
				<path id="XMLID_90_" class="st6" d="M763,640.3c0.8-0.2,1.5-0.4,2.3-0.6l0-0.1l-2.5-0.7L763,640.3z"/>
				<polygon id="XMLID_88_" class="st8" points="751.4,571 751.4,571 751.4,571.1 751.4,571.1 				"/>
				<polygon id="XMLID_87_" class="st4" points="753.3,580.7 753,580.6 754.5,589.7 755.1,589.3 				"/>
				<polygon id="XMLID_86_" class="st2" points="751.4,571.1 751.4,571.1 753,580.6 753.3,580.7 				"/>
			</g>
			<g>
				<polygon id="XMLID_85_" class="st9" points="744.2,595.8 743.4,595.5 743.3,596.2 744.2,596.2 				"/>
				<polygon id="XMLID_84_" class="st1" points="744.1,596.8 743.1,597.3 738.1,621.8 739.9,621.5 				"/>
				<polygon id="XMLID_83_" class="st5" points="744.2,596.2 743.3,596.2 743.1,597.3 744.1,596.8 				"/>
				<polygon id="XMLID_82_" class="st5" points="739.9,621.5 738.1,621.8 736.1,631.9 738.1,632.4 				"/>
				<polygon id="XMLID_81_" class="st10" points="744.6,593.9 744.1,592.3 743.4,595.5 744.2,595.8 				"/>
				<path id="XMLID_80_" class="st11" d="M736.1,631.9l-1.6,7.9c0.7,0.2,1.5,0.4,2.3,0.6l1.3-8L736.1,631.9z"/>
				<polygon id="XMLID_79_" class="st8" points="748.4,571 748.4,571 747.9,573.3 748,573.2 				"/>
				<polygon id="XMLID_78_" class="st4" points="747,579.6 746.7,579.5 744.1,592.3 744.6,593.9 				"/>
				<polygon id="XMLID_77_" class="st2" points="748,573.2 747.9,573.3 746.7,579.5 747,579.6 				"/>
			</g>
			<g>
				<path id="XMLID_76_" class="st12" d="M791.2,595.5c0.9-3.4,1.3-6.9,1.3-10.5c-0.8,0-1.6,0.1-2.3,0.2c-1.3,0.1-2.5,0.3-3.7,0.5
					c-3.1,0.6-5.8,1.4-8.1,2.4c-4.5,2-7.7,4.7-10,7.9c-3,4.1-4.4,8.8-4.8,13.3c-0.3,3.2-0.1,6.3,0.3,8.8c0.4,2.3,0.9,4.1,1.4,5.2
					c0.4,0.8,0.8,1.2,1.1,1.1c3.4-1.4,6.6-3.3,9.5-5.6c0.6-0.5,1.2-1,1.8-1.5c5.1-4.4,9.2-10,11.7-16.3c0.5-1.3,1-2.7,1.4-4.1
					C791,596.5,791.1,596,791.2,595.5z"/>
				<path id="XMLID_75_" class="st12" d="M711.2,585.4c-1.3-0.2-2.6-0.3-4-0.4c0,3.9,0.5,7.6,1.5,11.2c0.1,0.5,0.3,0.9,0.4,1.4
					c0.1,0.3,0.2,0.5,0.2,0.8c1.7,5,4.2,9.6,7.5,13.6c3.7,4.5,8.2,8.2,13.4,10.9c1,0.5,2.1,1.1,3.2,1.5c0.4,0.2,1-0.7,1.5-2.2
					c1.4-3.9,2.5-12.3-0.3-20.2c-0.6-1.8-1.5-3.5-2.6-5.1c-1.9-2.9-4.6-5.5-8.3-7.6c-0.2-0.1-0.5-0.3-0.7-0.4
					c-2.6-1.4-5.7-2.4-9.4-3.1c-0.1,0-0.3-0.1-0.4-0.1c0,0-0.1,0-0.1,0c-0.1,0-0.2,0-0.3-0.1C712.3,585.6,711.8,585.5,711.2,585.4z"
					/>
				<path id="XMLID_74_" class="st13" d="M778.4,588.2l2.5-15.5L779,573l-14.1,9.7l3.5,13.4C770.7,592.9,773.9,590.2,778.4,588.2z"
					/>
				<path id="XMLID_73_" class="st3" d="M768.4,596.1l-3.5-13.4l-8.7,6l3.8,18.1l3.7,2.6C764,604.9,765.4,600.2,768.4,596.1z"/>
				<path id="XMLID_72_" class="st9" d="M732,597l10-0.6l0.2-1.1l-18.5-5.8C727.4,591.4,730.1,594.1,732,597z"/>
				<path id="XMLID_71_" class="st9" d="M709.1,597.7l-1.4,0.9l1.6-0.1C709.3,598.2,709.2,597.9,709.1,597.7z"/>
				<path id="XMLID_70_" class="st1" d="M734.9,622.3l1.7-0.2l5-23.9l-7.1,4C737.4,610,736.3,618.4,734.9,622.3z"/>
				<path id="XMLID_69_" class="st1" d="M716.9,612l-6.3,3.5l1.6,9.9l18-2.6C725,620.2,720.5,616.5,716.9,612z"/>
				<path id="XMLID_68_" class="st1" d="M763.6,609.3l-3.7-2.6l2.4,11.6l1.5-0.2C763.5,615.6,763.3,612.5,763.6,609.3z"/>
				<path id="XMLID_67_" class="st1" d="M710.5,615.6l-6.2,3.5c1.7,2.3,3.6,4.5,5.7,6.5h2.1L710.5,615.6z"/>
				<path id="XMLID_66_" class="st5" d="M734.5,602.1l7.1-4l0.4-1.8l-10,0.6C733.1,598.6,733.9,600.3,734.5,602.1z"/>
				<path id="XMLID_65_" class="st5" d="M709.4,598.4l-1.6,0.1l2.8,17l6.3-3.5C713.6,608,711,603.4,709.4,598.4z"/>
				<path id="XMLID_64_" class="st10" d="M707.7,598.5l-8.9,11.5c1.6,3.2,3.4,6.2,5.5,9l6.2-3.5L707.7,598.5z"/>
				<path id="XMLID_63_" class="st14" d="M790.8,597l0.7,1.9l-0.3-3.4C791.1,596,791,596.5,790.8,597z"/>
				<path id="XMLID_62_" class="st14" d="M790.2,585.2l-1.4-13.8l-7.4,1.1l5.1,13.2C787.7,585.6,788.9,585.4,790.2,585.2z"/>
				<path id="XMLID_61_" class="st15" d="M708.7,596.3l-1,2.3l1.4-0.9C709,597.2,708.8,596.7,708.7,596.3z"/>
				<path id="XMLID_60_" class="st2" d="M789.4,601.1c-2.6,6.3-6.6,11.9-11.7,16.3l16.5,3.2c1.4-1.7,2.6-3.4,3.8-5.3l-6.3-16.4
					L789.4,601.1z"/>
				<path id="XMLID_59_" class="st16" d="M786.5,585.8l-5.1-13.2l-0.6,0.1l-2.5,15.5C780.7,587.2,783.4,586.3,786.5,585.8z"/>
				<path id="XMLID_58_" class="st16" d="M789.4,601.1l2.2-2.2l-0.7-1.9C790.4,598.4,789.9,599.8,789.4,601.1z"/>
				<path id="XMLID_57_" class="st17" d="M693.6,593.1c0.3,2.1,0.7,4.1,1.2,6.1l12.9-0.7L693.6,593.1z"/>
				<path id="XMLID_56_" class="st5" d="M763.9,618.1l-1.5,0.2l1.3,6.3l1.6-1.3C764.8,622.2,764.2,620.4,763.9,618.1z"/>
				<path id="XMLID_55_" class="st5" d="M733.4,624.4c-1.1-0.5-2.1-1-3.2-1.5l-18,2.6l22.5,6l2-9.5l-1.7,0.2
					C734.4,623.8,733.8,624.6,733.4,624.4z"/>
				<path id="XMLID_54_" class="st18" d="M710,625.5c0.3,0.3,0.6,0.6,1,0.9c0.8-0.6,1.2-0.9,1.2-0.9H710z"/>
				<path id="XMLID_53_" class="st19" d="M694.9,599.2c1,3.8,2.3,7.4,4,10.9l8.9-11.5L694.9,599.2z"/>
				<polygon id="XMLID_52_" class="st8" points="779,573 766.7,574.8 762,571 761.9,571 764.9,582.6 				"/>
				<path id="XMLID_51_" class="st10" d="M723,589c0.2,0.1,0.5,0.3,0.7,0.4l18.5,5.8l1.1-5.3l-3.5-11.5L723,589z"/>
				<path id="XMLID_50_" class="st7" d="M766.4,624.4c-0.3,0.1-0.7-0.3-1.1-1.1l-1.6,1.3l3.1,14.8c6.9-2.2,13.3-5.6,18.8-10.1
					l-9.7-10.4C773,621.1,769.8,623,766.4,624.4z"/>
				<path id="XMLID_49_" class="st20" d="M791.6,599l11.7,5.3c2.2-6.1,3.4-12.6,3.4-19.4c0-0.3,0-0.5,0-0.8l-0.1-0.1L791.6,599z"/>
				<path id="XMLID_48_" class="st8" d="M790.2,585.2c0.8-0.1,1.5-0.1,2.3-0.2c0,3.6-0.5,7.1-1.3,10.5l0.3,3.4l15-14.9l-11.7-10.1
					l-3.3-2.9l-2.7,0.4L790.2,585.2z"/>
				<path id="XMLID_47_" class="st21" d="M775.9,618.9l9.7,10.4c3.2-2.6,6-5.4,8.6-8.6l-16.5-3.2
					C777.1,617.9,776.5,618.4,775.9,618.9z"/>
				<path id="XMLID_46_" class="st22" d="M797.9,615.4c2.2-3.5,4-7.2,5.4-11.1l-11.7-5.3L797.9,615.4z"/>
				<path id="XMLID_45_" class="st6" d="M711,626.4c0.5,0.5,1,0.9,1.5,1.3l-0.3-2.2C712.2,625.5,711.8,625.8,711,626.4z"/>
				<path id="XMLID_44_" class="st11" d="M712.5,627.8c5.9,5.2,12.9,9.2,20.5,11.6l1.6-7.8l-22.5-6L712.5,627.8z"/>
				<path id="XMLID_43_" class="st23" d="M693.1,585.8c0,2.5,0.2,4.9,0.6,7.3l14.1,5.4L693.1,585.8z"/>
				<path id="XMLID_42_" class="st24" d="M708.7,596.3c-1-3.6-1.5-7.3-1.5-11.2c1.4,0.1,2.8,0.2,4,0.4l-17.9-5.6
					c-0.1,1.7-0.2,3.4-0.2,5.1c0,0.3,0,0.6,0,0.9l14.7,12.7L708.7,596.3z"/>
				<polygon id="XMLID_41_" class="st8" points="746.6,574.1 747.3,571 737.6,571 739.8,578.3 				"/>
				<path id="XMLID_40_" class="st25" d="M717.9,573.2l-4.8,12.6c0,0,0.1,0,0.1,0l10.5-14.7h-2.5l-1.6,1.3L717.9,573.2z"/>
				<polygon id="XMLID_39_" class="st4" points="743.3,589.9 745.5,579.3 739.8,578.3 				"/>
				<polygon id="XMLID_38_" class="st4" points="754.6,580.9 756.2,588.6 764.9,582.6 				"/>
				<polygon id="XMLID_37_" class="st2" points="745.5,579.3 746.6,574.1 739.8,578.3 				"/>
				<polygon id="XMLID_36_" class="st2" points="761.9,571 752.5,571 754.6,580.9 764.9,582.6 				"/>
				<path id="XMLID_35_" class="st26" d="M712.8,585.7l-4.8-7.3l-3.9,2.1l-10.8-2c-0.1,0.4-0.1,0.9-0.1,1.3l17.9,5.6
					C711.8,585.5,712.3,585.6,712.8,585.7z"/>
				<path id="XMLID_34_" class="st22" d="M712.8,585.7c0.1,0,0.2,0,0.3,0.1l4.8-12.6l-9.9,5.3L712.8,585.7z"/>
				<path id="XMLID_33_" class="st2" d="M713.6,585.8l26.2-7.5l-2.2-7.3h-14l-10.5,14.7C713.3,585.8,713.5,585.8,713.6,585.8z"/>
				<path id="XMLID_32_" class="st3" d="M739.8,578.3l-26.2,7.5c3.6,0.7,6.7,1.8,9.4,3.1L739.8,578.3z"/>
				<path id="XMLID_31_" class="st9" d="M745.3,531l-16.8,1.1c-3.3,1.3-6.4,3-9.3,4.9l11.1,3.5L745.3,531z"/>
				<path id="XMLID_30_" class="st5" d="M744.8,528.1c-5.7,0.5-11.2,1.9-16.3,4l16.8-1.1L744.8,528.1z"/>
				<path id="XMLID_29_" class="st10" d="M747.7,527.9c-1,0-1.9,0.1-2.9,0.2l0.5,2.9L747.7,527.9z"/>
				<path id="XMLID_28_" class="st15" d="M730.3,540.5l9.1,2.9c0.3-0.1,0.6-0.1,0.8-0.2l5.1-12.1L730.3,540.5z"/>
				<path id="XMLID_27_" class="st17" d="M776.9,543.1l3.6-6.2c-4.7-3-9.8-5.4-15.3-6.9l-19.9,1L776.9,543.1z"/>
				<path id="XMLID_26_" class="st19" d="M765.2,530c-4.8-1.4-9.9-2.1-15.1-2.2v0c-0.1,0-0.1,0-0.2,0c-0.1,0-0.1,0-0.2,0v0
					c-0.7,0-1.3,0-2,0.1l-2.4,3.1L765.2,530z"/>
				<path id="XMLID_25_" class="st10" d="M730.3,540.5l-11.1-3.5c-3,1.9-5.7,4.1-8.3,6.5l2.3,7.7L730.3,540.5z"/>
				<path id="XMLID_24_" class="st27" d="M794.8,550c-2.3-2.9-4.8-5.6-7.6-8l-4.7,3.3L794.8,550z"/>
				<path id="XMLID_23_" class="st28" d="M776.9,543.1l5.5,2.1l4.7-3.3c-2.1-1.8-4.3-3.5-6.6-5L776.9,543.1z"/>
				<path id="XMLID_22_" class="st29" d="M779,573l1.9-0.3l0.6-0.1l7.4-1.1l2.7-0.4l-1.8-1.6c0.2,0.5,0.4,1,0.6,1.6h-22.8l-0.8,3.8
					L779,573z"/>
				<polygon id="XMLID_21_" class="st30" points="767.4,571 762,571 766.7,574.8 				"/>
				<path id="XMLID_20_" class="st30" d="M776.9,543.1l-3.5,6c0.6,0.4,1.2,0.8,1.7,1.2l7.3-5.1L776.9,543.1z"/>
				<path id="XMLID_19_" class="st23" d="M745.3,531l13.9,12c5.1,1.2,9.9,3.3,14.2,6.1l3.5-6L745.3,531z"/>
				<path id="XMLID_18_" class="st31" d="M782,556.7c3.3,3.7,5.9,8,7.7,12.7l1.8,1.6l3.3,2.9l8.7-7.6c-0.4-1.1-0.8-2.1-1.2-3.2
					L782,556.7z"/>
				<path id="XMLID_17_" class="st30" d="M806.6,584l0.1,0.1c-0.1-6.2-1.2-12.2-3.1-17.8l-8.7,7.6L806.6,584z"/>
				<path id="XMLID_16_" class="st24" d="M740.2,543.1c3.1-0.7,6.3-1.1,9.6-1.1c3.2,0,6.3,0.4,9.3,1.1l-13.9-12L740.2,543.1z"/>
				<path id="XMLID_15_" class="st32" d="M775.1,550.4c2.5,1.9,4.8,4,6.9,6.3l20.4,6.4c-2-4.7-4.5-9.1-7.6-13.1l-12.3-4.7
					L775.1,550.4z"/>
				<line id="XMLID_14_" class="st33" x1="791.6" y1="571" x2="794.9" y2="573.9"/>
				<line id="XMLID_13_" class="st34" x1="794.9" y1="573.9" x2="806.6" y2="584"/>
				<line id="XMLID_12_" class="st34" x1="806.6" y1="584" x2="806.7" y2="584.1"/>
				<path id="XMLID_11_" class="st8" d="M698.5,560.4c-1,2.2-1.9,4.5-2.7,6.8l13.9,3c1.4-3.9,3.4-7.6,5.9-10.9l-2.4-8.1L698.5,560.4
					z"/>
				<polygon id="XMLID_10_" class="st8" points="719.6,572.3 719.2,571 713.7,571 				"/>
				<polygon id="XMLID_9_" class="st25" points="721.2,571 720.5,571 719.6,572.3 				"/>
				<path id="XMLID_8_" class="st2" d="M695.9,567.2c-0.8,2.4-1.4,4.8-1.9,7.3l25.6-2.3l-5.9-1.3h-4.2c0.1-0.3,0.2-0.6,0.3-0.8
					L695.9,567.2z"/>
				<path id="XMLID_7_" class="st35" d="M708,578.4l9.9-5.3l1.7-0.9l-25.6,2.3c-0.2,1.3-0.4,2.6-0.6,3.9l10.8,2L708,578.4z"/>
				<path id="XMLID_6_" class="st4" d="M710.9,543.5c-2.1,2-4,4.1-5.8,6.3l8.1,1.4L710.9,543.5z"/>
				<path id="XMLID_5_" class="st2" d="M705.1,549.8c-2.6,3.3-4.8,6.8-6.6,10.6l14.7-9.2L705.1,549.8z"/>
				<path id="XMLID_4_" class="st2" d="M715.7,559.3c4.4-5.9,10.3-10.7,17.2-13.7l-19.6,5.6L715.7,559.3z"/>
				<polygon id="XMLID_3_" class="st2" points="720.5,571 719.2,571 719.6,572.3 				"/>
				<path id="XMLID_2_" class="st3" d="M713.2,551.2l19.6-5.6c2.1-0.9,4.3-1.7,6.6-2.3l-9.1-2.9L713.2,551.2z"/>
			</g>
		</g>
		<path id="XMLID_295_" class="st36" d="M749.9,470.9l77.9,31.7l0,1.6l-0.1,37.8c2,5.6,3.2,15.4,3.5,22.7c0.1,1.1-0.9,2.1-2,2.1h-6
			c-1.1,0-2.1-0.9-2-2.1c0.3-7.4,1.8-18.1,3.5-22.7v-38.6l-14.3,3.8l-5.6,1.5v43.2c-9.5-19.3-29.4-32.7-52.3-32.7h-4.6
			c-23.2,0-43.4,13.8-52.7,33.6l-0.2,0v-44l-5.6-1.5l-17.3-4.6L749.9,470.9z"/>
	</g>
</g>
<g>
	<path class="st36" d="M676.8,708.3h-12.3l-2,5.3h-9.4l14.4-36.5h6.3l15,36.5h-9.9L676.8,708.3z M668,699.3l-0.3,0.8h6l-0.2-0.6
		l-2.8-7.8L668,699.3z"/>
	<path class="st36" d="M708.8,677.6c8.8,0,13,11.4,6.1,16.3c3.8,2,5.4,5.1,5.4,8.1c0,5.8-4,11.6-11.5,11.6h-16.6v-36.1H708.8z
		 M700.9,690.6h6.6c3,0,2.9-5,0.1-5h-6.8V690.6z M700.9,705.3h7.9c3.7,0,3.7-6.5,0-6.5h-7.9V705.3z"/>
	<path class="st36" d="M731.1,713.6v-27.8h-9.7v-8.2h28.2v8.2h-9.7v27.8H731.1z"/>
	<path class="st36" d="M766.6,677c10.3,0,18.7,8,18.7,18.7c0,10.5-8.4,18.5-18.7,18.5s-18.7-7.9-18.7-18.5S756.2,677,766.6,677z
		 M776.4,695.6c0-13.6-19.7-13.7-19.7,0C756.7,709.2,776.4,709.1,776.4,695.6z"/>
	<path class="st36" d="M811,677.6v28h6.5v-28h9v28h6.5v-28h9.1v36.1h-40.2v-36.1H811z"/>
	<path class="st36" d="M877.1,678.1l-12.8,17.4l14,17.7v0.5h-10.9l-10.7-14v14h-8.8v-36.1h8.8v14l10-14h10.5V678.1z"/>
	<path class="st36" d="M896.5,677c10.3,0,18.7,8,18.7,18.7c0,10.5-8.4,18.5-18.7,18.5c-10.3,0-18.7-7.9-18.7-18.5
		S886.2,677,896.5,677z M906.3,695.6c0-13.6-19.7-13.7-19.7,0C886.6,709.2,906.3,709.1,906.3,695.6z"/>
	<path class="st36" d="M936.3,699.5l-2.8-7.8l-2.7,7.6l-5.5,14.3h-9.4l14.4-36.5h6.3l15,36.5h-9.9L936.3,699.5z"/>
	<path class="st36" d="M976.9,708.3h-12.3l-2,5.3h-9.4l14.4-36.5h6.3l15,36.5h-9.9L976.9,708.3z M968.1,699.3l-0.3,0.8h6l-0.2-0.6
		l-2.8-7.8L968.1,699.3z"/>
</g>
</svg>
