<?xml version="1.0" encoding="utf-8"?>
<!-- Generator: Adobe Illustrator 25.4.1, SVG Export Plug-In . SVG Version: 6.00 Build 0)  -->
<svg version="1.1" id="Layer_1" xmlns="http://www.w3.org/2000/svg" xmlns:xlink="http://www.w3.org/1999/xlink" x="0px" y="0px"
	 viewBox="0 0 32 32" style="enable-background:new 0 0 32 32;" xml:space="preserve">
<style type="text/css">
	.st0{fill:#FFFFFF;}
	.st1{fill:#F27029;}
	.st2{fill:#00B5D2;}
	.st3{fill:#02A9B4;}
	.st4{fill:#028DA3;}
	.st5{fill:#F69220;}
	.st6{fill:#F48220;}
	.st7{fill:#FFC114;}
	.st8{fill:#00A7CA;}
	.st9{fill:#F37526;}
	.st10{fill:#F79920;}
	.st11{fill:#F9A11D;}
	.st12{fill:none;}
	.st13{fill:#5AC8E8;}
	.st14{fill:#078BA9;}
	.st15{fill:#D93627;}
	.st16{fill:#00A6AF;}
	.st17{fill:#EE4237;}
	.st18{fill:#F26F28;}
	.st19{fill:#FBB216;}
	.st20{fill:#317888;}
	.st21{fill:#F89E1B;}
	.st22{fill:#10ABB6;}
	.st23{fill:#ED2037;}
	.st24{fill:#EC5A2E;}
	.st25{fill:#009BB1;}
	.st26{fill:#ED1F44;}
	.st27{fill:#8E1832;}
	.st28{fill:#ED203A;}
	.st29{fill:#EE4456;}
	.st30{fill:#D51E43;}
	.st31{fill:#ED1E4A;}
	.st32{fill:#E81D3C;}
	.st33{fill:#3AC4EB;}
	.st34{fill:#20334E;}
</style>
<path class="st0" d="M20.1,32h-8.2C5.3,32,0,26.7,0,20.1v-8.2C0,5.3,5.3,0,11.9,0h8.2C26.7,0,32,5.3,32,11.9v8.2
	C32,26.7,26.7,32,20.1,32z"/>
<g>
	<g>
		<g>
			<polygon id="XMLID_187_" class="st1" points="15.3,25.2 16.4,25.2 16.3,23.8 15.4,23.8 			"/>
			<polygon id="XMLID_147_" class="st2" points="16,18.7 15.9,18 15.9,18 15.8,18 15.8,18 15.7,18.7 			"/>
			<g>
				<polygon id="XMLID_98_" class="st3" points="16.3,22.9 16.1,21.7 15.6,21.7 15.5,21.8 15.5,22.4 16.2,22.9 				"/>
				<polygon id="XMLID_97_" class="st1" points="15.5,22.4 15.4,22.9 16.2,22.9 				"/>
				<polygon id="XMLID_96_" class="st4" points="15.5,21.7 15.5,21.8 15.6,21.7 				"/>
			</g>
			<polygon id="XMLID_126_" class="st4" points="16.1,20.9 16,19.7 15.7,19.7 15.5,20.9 			"/>
			<rect id="XMLID_93_" x="15.3" y="26.3" class="st5" width="1.1" height="1.7"/>
			<path id="XMLID_89_" class="st6" d="M16.4,29h-1.1v0.5c0.2,0,0.4,0,0.6,0l0,0c0,0,0,0,0,0s0,0,0,0l0,0c0.2,0,0.3,0,0.5,0L16.4,29
				L16.4,29z"/>
			<g>
				<polygon id="XMLID_95_" class="st3" points="16.7,21 16.6,21.1 17,23.5 17.3,23.6 				"/>
				<polygon id="XMLID_94_" class="st1" points="17.3,23.6 17,23.5 17.4,25.8 17.7,25.7 				"/>
				<polygon id="XMLID_92_" class="st5" points="17.7,25.7 17.4,25.8 17.6,27.1 17.9,26.9 				"/>
				<polygon id="XMLID_91_" class="st7" points="17.6,27.1 18,29.1 18.4,29.2 17.9,26.9 				"/>
				<path id="XMLID_90_" class="st6" d="M18,29.3c0.1,0,0.2-0.1,0.4-0.1l0,0L18,29.1L18,29.3z"/>
				<polygon id="XMLID_88_" class="st8" points="16.1,18 16.1,18 16.1,18 16.1,18 				"/>
				<polygon id="XMLID_87_" class="st4" points="16.4,19.6 16.4,19.6 16.6,21.1 16.7,21 				"/>
				<polygon id="XMLID_86_" class="st2" points="16.1,18 16.1,18 16.4,19.6 16.4,19.6 				"/>
			</g>
			<g>
				<polygon id="XMLID_85_" class="st9" points="15,22.1 14.8,22 14.8,22.1 14.9,22.1 				"/>
				<polygon id="XMLID_84_" class="st1" points="14.9,22.2 14.8,22.3 14,26.3 14.2,26.2 				"/>
				<polygon id="XMLID_83_" class="st5" points="14.9,22.1 14.8,22.1 14.8,22.3 14.9,22.2 				"/>
				<polygon id="XMLID_82_" class="st5" points="14.2,26.2 14,26.3 13.6,27.9 14,28 				"/>
				<polygon id="XMLID_81_" class="st10" points="15,21.7 14.9,21.5 14.8,22 15,22.1 				"/>
				<path id="XMLID_80_" class="st11" d="M13.6,27.9l-0.3,1.3c0.1,0,0.2,0.1,0.4,0.1L14,28L13.6,27.9z"/>
				<polygon id="XMLID_79_" class="st8" points="15.6,18 15.6,18 15.6,18.4 15.6,18.4 				"/>
				<polygon id="XMLID_78_" class="st4" points="15.4,19.4 15.4,19.4 14.9,21.5 15,21.7 				"/>
				<polygon id="XMLID_77_" class="st2" points="15.6,18.4 15.6,18.4 15.4,19.4 15.4,19.4 				"/>
			</g>
			<g>
				<path id="XMLID_76_" class="st12" d="M22.6,22c0.1-0.5,0.2-1.1,0.2-1.7c-0.1,0-0.3,0-0.4,0c-0.2,0-0.4,0-0.6,0.1
					c-0.5,0.1-0.9,0.2-1.3,0.4c-0.7,0.3-1.2,0.8-1.6,1.3c-0.5,0.7-0.7,1.4-0.8,2.2c0,0.5,0,1,0,1.4c0.1,0.4,0.1,0.7,0.2,0.9
					c0.1,0.1,0.1,0.2,0.2,0.2c0.6-0.2,1.1-0.5,1.5-0.9c0.1-0.1,0.2-0.2,0.3-0.2c0.8-0.7,1.5-1.6,1.9-2.6c0.1-0.2,0.2-0.4,0.2-0.7
					C22.6,22.2,22.6,22.1,22.6,22z"/>
				<path id="XMLID_75_" class="st12" d="M9.6,20.4c-0.2,0-0.4,0-0.7-0.1c0,0.6,0.1,1.2,0.2,1.8c0,0.1,0,0.2,0.1,0.2
					c0,0,0,0.1,0,0.1c0.3,0.8,0.7,1.6,1.2,2.2c0.6,0.7,1.3,1.3,2.2,1.8c0.2,0.1,0.3,0.2,0.5,0.2c0.1,0,0.2-0.1,0.2-0.4
					c0.2-0.6,0.4-2-0.1-3.3c-0.1-0.3-0.2-0.6-0.4-0.8c-0.3-0.5-0.8-0.9-1.3-1.2c0,0-0.1,0-0.1-0.1c-0.4-0.2-0.9-0.4-1.5-0.5
					c0,0,0,0-0.1,0c0,0,0,0,0,0c0,0,0,0,0,0C9.8,20.4,9.7,20.4,9.6,20.4z"/>
				<path id="XMLID_74_" class="st13" d="M20.5,20.8l0.4-2.5l-0.3,0l-2.3,1.6l0.6,2.2C19.3,21.6,19.8,21.1,20.5,20.8z"/>
				<path id="XMLID_73_" class="st3" d="M18.9,22.1l-0.6-2.2l-1.4,1l0.6,2.9l0.6,0.4C18.2,23.5,18.4,22.8,18.9,22.1z"/>
				<path id="XMLID_72_" class="st9" d="M13,22.2l1.6-0.1l0-0.2l-3-0.9C12.2,21.3,12.6,21.8,13,22.2z"/>
				<path id="XMLID_71_" class="st9" d="M9.2,22.4L9,22.5l0.3,0C9.3,22.4,9.3,22.4,9.2,22.4z"/>
				<path id="XMLID_70_" class="st1" d="M13.4,26.3l0.3,0l0.8-3.9l-1.1,0.6C13.8,24.4,13.7,25.7,13.4,26.3z"/>
				<path id="XMLID_69_" class="st1" d="M10.5,24.7l-1,0.6l0.3,1.6l2.9-0.4C11.8,26,11.1,25.4,10.5,24.7z"/>
				<path id="XMLID_68_" class="st1" d="M18.1,24.2l-0.6-0.4l0.4,1.9l0.2,0C18.1,25.3,18.1,24.8,18.1,24.2z"/>
				<path id="XMLID_67_" class="st1" d="M9.5,25.3l-1,0.6c0.3,0.4,0.6,0.7,0.9,1.1h0.3L9.5,25.3z"/>
				<path id="XMLID_66_" class="st5" d="M13.4,23.1l1.1-0.6l0.1-0.3L13,22.2C13.1,22.5,13.3,22.8,13.4,23.1z"/>
				<path id="XMLID_65_" class="st5" d="M9.3,22.5l-0.3,0l0.5,2.8l1-0.6C10,24,9.6,23.3,9.3,22.5z"/>
				<path id="XMLID_64_" class="st10" d="M9,22.5l-1.4,1.9c0.3,0.5,0.6,1,0.9,1.5l1-0.6L9,22.5z"/>
				<path id="XMLID_63_" class="st14" d="M22.5,22.2l0.1,0.3L22.6,22C22.6,22.1,22.6,22.2,22.5,22.2z"/>
				<path id="XMLID_62_" class="st14" d="M22.4,20.3l-0.2-2.2L21,18.3l0.8,2.1C22,20.4,22.2,20.4,22.4,20.3z"/>
				<path id="XMLID_61_" class="st15" d="M9.2,22.1L9,22.5l0.2-0.1C9.2,22.3,9.2,22.2,9.2,22.1z"/>
				<path id="XMLID_60_" class="st2" d="M22.3,22.9c-0.4,1-1.1,1.9-1.9,2.6l2.7,0.5c0.2-0.3,0.4-0.6,0.6-0.9l-1-2.7L22.3,22.9z"/>
				<path id="XMLID_59_" class="st16" d="M21.8,20.4L21,18.3l-0.1,0l-0.4,2.5C20.9,20.6,21.3,20.5,21.8,20.4z"/>
				<path id="XMLID_58_" class="st16" d="M22.3,22.9l0.4-0.4l-0.1-0.3C22.5,22.5,22.4,22.7,22.3,22.9z"/>
				<path id="XMLID_57_" class="st17" d="M6.7,21.6c0,0.3,0.1,0.7,0.2,1L9,22.5L6.7,21.6z"/>
				<path id="XMLID_56_" class="st5" d="M18.1,25.7l-0.2,0l0.2,1l0.3-0.2C18.3,26.3,18.2,26,18.1,25.7z"/>
				<path id="XMLID_55_" class="st5" d="M13.2,26.7c-0.2-0.1-0.3-0.2-0.5-0.2l-2.9,0.4l3.7,1l0.3-1.5l-0.3,0
					C13.3,26.6,13.3,26.7,13.2,26.7z"/>
				<path id="XMLID_54_" class="st18" d="M9.4,26.9c0,0,0.1,0.1,0.2,0.1c0.1-0.1,0.2-0.1,0.2-0.1H9.4z"/>
				<path id="XMLID_53_" class="st19" d="M6.9,22.6c0.2,0.6,0.4,1.2,0.7,1.8L9,22.5L6.9,22.6z"/>
				<polygon id="XMLID_52_" class="st8" points="20.6,18.3 18.6,18.6 17.8,18 17.8,18 18.3,19.9 				"/>
				<path id="XMLID_51_" class="st10" d="M11.5,20.9c0,0,0.1,0,0.1,0.1l3,0.9l0.2-0.9l-0.6-1.9L11.5,20.9z"/>
				<path id="XMLID_50_" class="st7" d="M18.6,26.7c0,0-0.1,0-0.2-0.2l-0.3,0.2l0.5,2.4c1.1-0.4,2.2-0.9,3.1-1.6l-1.6-1.7
					C19.6,26.2,19.1,26.5,18.6,26.7z"/>
				<path id="XMLID_49_" class="st20" d="M22.7,22.6l1.9,0.9c0.4-1,0.6-2,0.6-3.2c0,0,0-0.1,0-0.1l0,0L22.7,22.6z"/>
				<path id="XMLID_48_" class="st8" d="M22.4,20.3c0.1,0,0.3,0,0.4,0c0,0.6-0.1,1.2-0.2,1.7l0.1,0.6l2.4-2.4l-1.9-1.6L22.7,18
					l-0.4,0.1L22.4,20.3z"/>
				<path id="XMLID_47_" class="st21" d="M20.1,25.8l1.6,1.7c0.5-0.4,1-0.9,1.4-1.4l-2.7-0.5C20.3,25.6,20.2,25.7,20.1,25.8z"/>
				<path id="XMLID_46_" class="st22" d="M23.7,25.2c0.4-0.6,0.7-1.2,0.9-1.8l-1.9-0.9L23.7,25.2z"/>
				<path id="XMLID_45_" class="st6" d="M9.6,27c0.1,0.1,0.2,0.1,0.2,0.2l0-0.4C9.7,26.9,9.7,26.9,9.6,27z"/>
				<path id="XMLID_44_" class="st11" d="M9.8,27.2c1,0.8,2.1,1.5,3.3,1.9l0.3-1.3l-3.7-1L9.8,27.2z"/>
				<path id="XMLID_43_" class="st23" d="M6.6,20.4c0,0.4,0,0.8,0.1,1.2L9,22.5L6.6,20.4z"/>
				<path id="XMLID_42_" class="st24" d="M9.2,22.1c-0.2-0.6-0.2-1.2-0.2-1.8c0.2,0,0.4,0,0.7,0.1l-2.9-0.9c0,0.3,0,0.5,0,0.8
					c0,0,0,0.1,0,0.1L9,22.5L9.2,22.1z"/>
				<polygon id="XMLID_41_" class="st8" points="15.3,18.5 15.4,18 13.9,18 14.2,19.2 				"/>
				<path id="XMLID_40_" class="st25" d="M10.7,18.4l-0.8,2c0,0,0,0,0,0l1.7-2.4h-0.4L11,18.2L10.7,18.4z"/>
				<polygon id="XMLID_39_" class="st4" points="14.8,21.1 15.2,19.4 14.2,19.2 				"/>
				<polygon id="XMLID_38_" class="st4" points="16.6,19.6 16.9,20.9 18.3,19.9 				"/>
				<polygon id="XMLID_37_" class="st2" points="15.2,19.4 15.3,18.5 14.2,19.2 				"/>
				<polygon id="XMLID_36_" class="st2" points="17.8,18 16.3,18 16.6,19.6 18.3,19.9 				"/>
				<path id="XMLID_35_" class="st26" d="M9.8,20.4l-0.8-1.2l-0.6,0.3l-1.8-0.3c0,0.1,0,0.1,0,0.2l2.9,0.9
					C9.7,20.4,9.8,20.4,9.8,20.4z"/>
				<path id="XMLID_34_" class="st22" d="M9.8,20.4C9.9,20.4,9.9,20.4,9.8,20.4l0.8-2l-1.6,0.9L9.8,20.4z"/>
				<path id="XMLID_33_" class="st2" d="M10,20.4l4.3-1.2L13.9,18h-2.3L10,20.4C9.9,20.4,9.9,20.4,10,20.4z"/>
				<path id="XMLID_32_" class="st3" d="M14.2,19.2L10,20.4c0.6,0.1,1.1,0.3,1.5,0.5L14.2,19.2z"/>
				<path id="XMLID_31_" class="st9" d="M15.1,11.5l-2.7,0.2c-0.5,0.2-1,0.5-1.5,0.8l1.8,0.6L15.1,11.5z"/>
				<path id="XMLID_30_" class="st5" d="M15.1,11c-0.9,0.1-1.8,0.3-2.7,0.6l2.7-0.2L15.1,11z"/>
				<path id="XMLID_29_" class="st10" d="M15.5,11c-0.2,0-0.3,0-0.5,0l0.1,0.5L15.5,11z"/>
				<path id="XMLID_28_" class="st15" d="M12.7,13.1l1.5,0.5c0,0,0.1,0,0.1,0l0.8-2L12.7,13.1z"/>
				<path id="XMLID_27_" class="st17" d="M20.3,13.5l0.6-1c-0.8-0.5-1.6-0.9-2.5-1.1l-3.2,0.2L20.3,13.5z"/>
				<path id="XMLID_26_" class="st19" d="M18.4,11.4c-0.8-0.2-1.6-0.3-2.5-0.3l0,0c0,0,0,0,0,0c0,0,0,0,0,0l0,0c-0.1,0-0.2,0-0.3,0
					l-0.4,0.5L18.4,11.4z"/>
				<path id="XMLID_25_" class="st10" d="M12.7,13.1l-1.8-0.6c-0.5,0.3-0.9,0.7-1.3,1.1l0.4,1.3L12.7,13.1z"/>
				<path id="XMLID_24_" class="st27" d="M23.2,14.6c-0.4-0.5-0.8-0.9-1.2-1.3l-0.8,0.5L23.2,14.6z"/>
				<path id="XMLID_23_" class="st28" d="M20.3,13.5l0.9,0.3l0.8-0.5c-0.3-0.3-0.7-0.6-1.1-0.8L20.3,13.5z"/>
				<path id="XMLID_22_" class="st29" d="M20.6,18.3l0.3,0l0.1,0l1.2-0.2l0.4-0.1l-0.3-0.3c0,0.1,0.1,0.2,0.1,0.3h-3.7l-0.1,0.6
					L20.6,18.3z"/>
				<polygon id="XMLID_21_" class="st30" points="18.7,18 17.8,18 18.6,18.6 				"/>
				<path id="XMLID_20_" class="st30" d="M20.3,13.5l-0.6,1c0.1,0.1,0.2,0.1,0.3,0.2l1.2-0.8L20.3,13.5z"/>
				<path id="XMLID_19_" class="st23" d="M15.1,11.5l2.3,2c0.8,0.2,1.6,0.5,2.3,1l0.6-1L15.1,11.5z"/>
				<path id="XMLID_18_" class="st31" d="M21.1,15.7c0.5,0.6,1,1.3,1.2,2.1l0.3,0.3l0.5,0.5l1.4-1.2c-0.1-0.2-0.1-0.3-0.2-0.5
					L21.1,15.7z"/>
				<path id="XMLID_17_" class="st30" d="M25.1,20.1L25.1,20.1c0-1-0.2-2-0.5-2.9l-1.4,1.2L25.1,20.1z"/>
				<path id="XMLID_16_" class="st24" d="M14.3,13.5c0.5-0.1,1-0.2,1.6-0.2c0.5,0,1,0.1,1.5,0.2l-2.3-2L14.3,13.5z"/>
				<path id="XMLID_15_" class="st32" d="M20,14.7c0.4,0.3,0.8,0.6,1.1,1l3.3,1c-0.3-0.8-0.7-1.5-1.2-2.1l-2-0.8L20,14.7z"/>
				<line id="XMLID_14_" class="st12" x1="22.7" y1="18" x2="23.2" y2="18.5"/>
				<line id="XMLID_13_" class="st12" x1="23.2" y1="18.5" x2="25.1" y2="20.1"/>
				<line id="XMLID_12_" class="st12" x1="25.1" y1="20.1" x2="25.1" y2="20.2"/>
				<path id="XMLID_11_" class="st8" d="M7.5,16.3c-0.2,0.4-0.3,0.7-0.4,1.1l2.3,0.5c0.2-0.6,0.6-1.2,1-1.8l-0.4-1.3L7.5,16.3z"/>
				<polygon id="XMLID_10_" class="st8" points="10.9,18.2 10.9,18 10,18 				"/>
				<polygon id="XMLID_9_" class="st25" points="11.2,18 11.1,18 10.9,18.2 				"/>
				<path id="XMLID_8_" class="st2" d="M7.1,17.4c-0.1,0.4-0.2,0.8-0.3,1.2l4.2-0.4L10,18H9.3c0,0,0-0.1,0-0.1L7.1,17.4z"/>
				<path id="XMLID_7_" class="st33" d="M9.1,19.2l1.6-0.9l0.3-0.1l-4.2,0.4c0,0.2-0.1,0.4-0.1,0.6l1.8,0.3L9.1,19.2z"/>
				<path id="XMLID_6_" class="st4" d="M9.5,13.5c-0.3,0.3-0.6,0.7-0.9,1l1.3,0.2L9.5,13.5z"/>
				<path id="XMLID_5_" class="st2" d="M8.6,14.6c-0.4,0.5-0.8,1.1-1.1,1.7l2.4-1.5L8.6,14.6z"/>
				<path id="XMLID_4_" class="st2" d="M10.3,16.1c0.7-1,1.7-1.7,2.8-2.2l-3.2,0.9L10.3,16.1z"/>
				<polygon id="XMLID_3_" class="st2" points="11.1,18 10.9,18 10.9,18.2 				"/>
				<path id="XMLID_2_" class="st3" d="M9.9,14.8l3.2-0.9c0.3-0.2,0.7-0.3,1.1-0.4l-1.5-0.5L9.9,14.8z"/>
			</g>
		</g>
		<path id="XMLID_295_" class="st34" d="M15.9,1.7l12.7,5.2v0.3l0,6.1c0.3,0.9,0.5,2.5,0.6,3.7c0,0.2-0.1,0.3-0.3,0.3h-1
			c-0.2,0-0.3-0.2-0.3-0.3c0.1-1.2,0.3-3,0.6-3.7V7l-2.3,0.6l-0.9,0.2v7c-1.5-3.1-4.8-5.3-8.5-5.3h-0.7c-3.8,0-7.1,2.2-8.6,5.5h0
			V7.9L6,7.6L3.2,6.9L15.9,1.7z"/>
	</g>
</g>
</svg>
